Coordinates
version=1
nRows=19
nColumns=33
inDegrees=yes

Units are S.I. units (second, meters, Newtons, ...)
Angles are in degrees.

endheader
time	ground_thorax_rot_x	ground_thorax_rot_y	ground_thorax_rot_z	ground_thorax_tx	ground_thorax_ty	ground_thorax_tz	clav_prot_r	clav_elev_r	scapula_abduction_r	scapula_elevation_r	scapula_upward_rot_r	scapula_winging_r	shoulder_elv_r	plane_of_elev_r	axial_rot_r	elbow_flexion_r	pro_sup_r	wrist_flex_r	wrist_dev_r	clav_prot_l	clav_elev_l	scapula_abduction_l	scapula_elevation_l	scapula_upward_rot_l	scapula_winging_l	shoulder_elv_l	plane_of_elev_l	axial_rot_l	elbow_flexion_l	pro_sup_l	wrist_flex_l	wrist_dev_l
      5.58000000	     -0.01399677	     -1.28000805	     13.37273641	     -0.11484680	      1.03110639	      0.01444663	      9.47808638	     -8.97692244	     18.17837234	     -3.32051365	      3.31179895	     -4.54228298	    -39.48548636	    -73.47651797	    102.07443511	    -77.80002372	   -154.70394752	     36.87845378	    -19.60391020	     10.02717371	     -2.52298480	    -12.44522669	    -19.11611607	    -34.63857990	     -1.08263039	     58.03023344	    -29.70429680	      6.39544066	     67.91533403	     13.65381210	      4.84913367	    -24.99999983
      5.59000000	      0.09078303	     -1.48349834	     13.45185003	     -0.11528825	      1.03087678	      0.01444102	      9.37932893	     -8.65351772	     17.82294733	     -2.89646935	      2.97891715	     -4.51625424	    -40.02722737	    -73.77459060	    101.99082359	    -77.56918788	   -154.51751888	     37.03067519	    -19.70448109	      9.87828234	     -2.26236595	    -12.22115495	    -19.56736887	    -35.03468643	     -1.26689595	     57.73146998	    -30.40461808	      6.32274660	     68.37216084	     13.69153350	      4.72321014	    -24.99999983
      5.60000000	      0.15946146	     -1.50162562	     13.38466782	     -0.11539359	      1.03102353	      0.01451376	      9.23571731	     -8.31458608	     17.70306778	     -2.70624226	      3.25944451	     -4.60764177	    -42.15574425	    -73.76766665	    100.18858873	    -76.53532042	   -152.31623349	     39.46172936	    -21.14158144	      9.48429183	     -1.92821248	    -11.43295671	    -19.76107520	    -34.72156895	     -1.57134693	     57.68617381	    -31.27594882	      5.12198322	     68.52369224	     14.70364058	      3.18084625	    -24.99999983
      5.61000000	      0.27493177	     -1.70110648	     13.49332324	     -0.11587104	      1.03086987	      0.01451987	      9.15885087	     -8.03099576	     17.36825232	     -2.30837660	      2.90255892	     -4.56334437	    -42.65222746	    -74.01337666	    100.04535702	    -76.19818667	   -152.11209682	     39.59257720	    -21.22219259	      9.33342105	     -1.72669328	    -11.20522520	    -20.16298986	    -35.12636393	     -1.75957802	     57.37018292	    -31.93711984	      5.08163915	     68.72633522	     14.76783361	      3.04442095	    -24.99999983
      5.62000000	      0.33423574	     -1.71045451	     13.42068110	     -0.11601850	      1.03098020	      0.01463523	      9.08876854	     -7.71977132	     17.37909805	     -2.15001613	      3.19884399	     -4.69573441	    -44.81458930	    -73.83994344	     98.00308314	    -75.07266964	   -149.61716129	     42.00946922	    -22.47125249	      8.96065742	     -1.35867315	    -10.44344744	    -20.40542010	    -34.83886421	     -2.06181117	     57.31381167	    -32.62662056	      3.92638668	     68.63595595	     16.07742427	      1.22090647	    -24.99999983
      5.63000000	      0.42638087	     -1.90700898	     13.51470785	     -0.11640468	      1.03092996	      0.01459653	      9.02642023	     -7.50809354	     17.09788483	     -1.83386229	      2.88850482	     -4.64564414	    -45.25542927	    -74.05442856	     97.88663278	    -74.54869201	   -149.45326970	     42.03928374	    -22.52302678	      8.82442191	     -1.21500188	    -10.24983497	    -20.74622572	    -35.23791189	     -2.22920701	     57.00285651	    -33.25724643	      3.92937423	     68.65759438	     16.15160048	      1.09754079	    -24.99999983
      5.64000000	      0.56822034	     -1.97970532	     13.69958264	     -0.11675338	      1.03038014	      0.01454406	      8.96922821	     -7.13907967	     16.85518683	     -1.40885211	      2.65693798	     -4.67031268	    -46.17122814	    -74.29557229	     97.28072630	    -73.96194839	   -148.53693638	     42.80215370	    -22.84874762	      8.67270047	     -0.89868153	     -9.97490246	    -21.16001012	    -35.43186631	     -2.41262143	     56.71600371	    -33.87855391	      3.30763810	     68.75435107	     16.72141399	      0.46057027	    -24.99999983
      5.65000000	      0.68099003	     -2.05040782	     13.60020679	     -0.11711031	      1.03080576	      0.01457414	      8.90361456	     -7.05671377	     16.59642960	     -1.22326130	      2.38731291	     -4.57706041	    -46.28650281	    -74.20528823	     97.07793194	    -73.16888233	   -148.38303430	     42.80867944	    -22.88827699	      8.53610205	     -0.88429865	     -9.77477799	    -21.31518022	    -35.70980958	     -2.54651097	     56.44367985	    -34.23320686	      3.33376528	     68.38070273	     16.84151872	      0.36154140	    -24.99999983
      5.66000000	      0.57154526	     -2.04307007	     13.42093314	     -0.11696616	      1.03095921	      0.01470812	      8.72382054	     -6.78530508	     16.65238083	     -1.29491018	      3.15463548	     -4.73534847	    -48.48759229	    -73.80961396	     94.89445451	    -71.54850942	   -144.45023998	     46.13444041	    -24.11026441	      8.17264261	     -0.33656827	     -8.91495579	    -21.53974958	    -35.00300622	     -2.83620638	     56.23428889	    -34.76823183	      2.28199815	     67.81400161	     19.35556769	     -2.51530532	    -24.99999983
      5.67000000	      0.66275249	     -2.13910402	     13.47770715	     -0.11730787	      1.03099962	      0.01464981	      8.70032379	     -6.67013896	     16.43759960	     -1.05944116	      2.83042849	     -4.67032665	    -48.73509364	    -73.90309146	     94.74557011	    -70.81942385	   -144.36635411	     46.03350133	    -24.15835500	      8.05517342	     -0.31354086	     -8.75656686	    -21.72525237	    -35.32891174	     -2.96395784	     55.96303592	    -35.24962292	      2.33190302	     67.51873793	     19.42671164	     -2.59039810	    -24.99999983
      5.68000000	      0.77642278	     -2.23657452	     13.54517246	     -0.11766446	      1.03106696	      0.01465813	      8.66451002	     -6.57848945	     16.22263892	     -0.85997706	      2.54714401	     -4.59893166	    -48.93750838	    -73.96742641	     94.58967334	    -70.06136607	   -144.20138301	     46.00233093	    -24.18513367	      7.94541431	     -0.27851334	     -8.60704619	    -21.90940057	    -35.62778208	     -3.08222834	     55.67539225	    -35.65986147	      2.29457650	     67.12973427	     19.54891642	     -2.67345478	    -24.99999983
      5.69000000	      0.80720838	     -2.30807269	     13.62344957	     -0.11738641	      1.03052995	      0.01478939	      8.60583962	     -6.05686343	     16.39843621	     -0.65532321	      3.18464197	     -4.87365915	    -51.05721146	    -73.68024156	     92.59383427	    -68.91485417	   -140.72361494	     48.08816892	    -24.99999983	      7.64519848	      0.28021857	     -7.87711533	    -22.21327165	    -35.06116509	     -3.34707563	     55.08271193	    -36.12492576	      1.76946147	     66.53278484	     21.61278925	     -4.94716767	    -24.99999983
      5.70000000	      0.89358277	     -2.37298820	     13.60475320	     -0.11786488	      1.03079802	      0.01464123	      8.61287077	     -6.09475002	     16.29172281	     -0.59090649	      2.94445288	     -4.80443677	    -51.13038551	    -73.70249842	     92.42230334	    -68.01219515	   -140.66244208	     47.92657429	    -24.99999983	      7.56812673	      0.22336663	     -7.79231856	    -22.29221749	    -35.33568984	     -3.42218528	     54.84735407	    -36.42752895	      1.73839658	     66.04557159	     21.68757552	     -4.96146281	    -24.99999983
      5.71000000	      0.92897097	     -2.41817978	     13.65170879	     -0.11818661	      1.03093787	      0.01466979	      8.59664310	     -6.07825027	     16.13528970	     -0.47357466	      2.69732193	     -4.73567364	    -51.27198926	    -73.66975728	     92.28092528	    -67.20090147	   -140.52199556	     47.83609418	    -24.99960436	      7.47242880	      0.19646249	     -7.66147948	    -22.37508901	    -35.55353200	     -3.51082643	     54.66275813	    -36.76231748	      1.80774554	     65.45178129	     21.79558187	     -5.00653857	    -24.99999983
      5.72000000	      0.98905480	     -2.45581282	     13.69576786	     -0.11846363	      1.03100107	      0.01463442	      8.56767452	     -6.05419166	     15.98104286	     -0.36922716	      2.49827337	     -4.66997870	    -51.38221152	    -73.66507926	     92.10832170	    -66.39030281	   -140.32991309	     47.77950542	    -24.98479144	      7.37450123	      0.19057080	     -7.52020038	    -22.47007319	    -35.75362005	     -3.60313770	     54.44278855	    -37.02751334	      1.83328727	     64.90787569	     21.93323236	     -5.06503456	    -24.99999983
      5.73000000	      0.88255169	     -2.48389827	     13.59663222	     -0.11830805	      1.03065753	      0.01470220	      8.56260072	     -5.68424893	     16.44921812	     -0.44957178	      3.49532656	     -5.03274038	    -53.57961558	    -73.14857086	     89.89025035	    -65.03810897	   -136.49024732	     49.37774985	    -24.99999983	      7.16015870	      0.78501937	     -6.87592259	    -22.67080640	    -34.90008053	     -3.78784913	     53.80942646	    -37.28366156	      1.49507905	     64.18659517	     24.48151824	     -7.23181133	    -24.99999983
      5.74000000	      0.97114726	     -2.48771871	     13.63122620	     -0.11851003	      1.03065879	      0.01470401	      8.54884251	     -5.66901182	     16.30497601	     -0.34315687	      3.26930906	     -4.96620882	    -53.58258862	    -73.07635414	     89.66992549	    -64.35069333	   -136.50083361	     49.22011628	    -24.99999983	      7.07069749	      0.69983583	     -6.76016664	    -22.68409170	    -35.09715715	     -3.85778429	     53.64522653	    -37.50585392	      1.56239373	     63.63156109	     24.54255923	     -7.22377593	    -24.99999983
      5.75000000	      1.02633143	     -2.47559075	     13.68606260	     -0.11880801	      1.03071939	      0.01469166	      8.55288605	     -5.69397528	     16.20676241	     -0.27860511	      3.05889854	     -4.90722421	    -53.65598330	    -73.04631612	     89.53663371	    -63.65350376	   -136.46393663	     49.08241475	    -24.99999983	      6.99881397	      0.62596211	     -6.66905967	    -22.69056388	    -35.25936140	     -3.91121794	     53.50517481	    -37.68517387	      1.59229133	     63.05473650	     24.63638909	     -7.21908177	    -24.99999983
      5.76000000	      1.06923140	     -2.50237358	     13.72966689	     -0.11902237	      1.03075523	      0.01468458	      8.53365314	     -5.71768633	     16.11171631	     -0.24865831	      2.93591306	     -4.85477360	    -53.68471471	    -72.97025316	     89.36974498	    -63.01061642	   -136.42246862	     48.95504132	    -24.99880205	      6.93220799	      0.57378504	     -6.58221935	    -22.71552888	    -35.41341538	     -3.96590473	     53.35524923	    -37.83975326	      1.59388698	     62.50196348	     24.76127283	     -7.22077627	    -24.99999983
